<?xml version="1.0" standalone="no"?>
<!DOCTYPE svg PUBLIC "-//W3C//DTD SVG 20010904//EN"
 "http://www.w3.org/TR/2001/REC-SVG-20010904/DTD/svg10.dtd">
<svg version="1.0" xmlns="http://www.w3.org/2000/svg"
 width="270.000000pt" height="270.000000pt" viewBox="0 0 270.000000 270.000000"
 preserveAspectRatio="xMidYMid meet">

<g transform="translate(0.000000,270.000000) scale(0.100000,-0.100000)"
fill="#000000" stroke="none">
<path d="M0 1350 l0 -1350 1350 0 1350 0 0 1350 0 1350 -1350 0 -1350 0 0
-1350z m1568 905 c226 -54 449 -207 581 -399 46 -66 106 -198 126 -275 20 -78
32 -254 16 -231 -8 11 -11 -1 -13 -50 l-2 -65 -6 70 c-4 39 -8 57 -9 40 -3
-30 -3 -30 -11 -5 -8 25 -8 24 -9 -5 -1 -16 -4 -48 -8 -70 l-7 -40 -7 30 -7
30 -1 -30 c-2 -49 -39 -172 -72 -238 -64 -127 -186 -267 -302 -346 -58 -40
-161 -88 -205 -97 -55 -11 -29 21 38 45 140 51 324 208 406 347 52 87 79 160
98 264 20 104 20 165 0 276 -9 49 -17 100 -19 114 -3 40 -16 71 -26 65 -5 -3
-7 0 -4 7 6 17 -53 120 -65 113 -5 -3 -12 0 -16 6 -4 8 -3 9 4 5 31 -19 5 19
-60 89 -269 288 -662 360 -1009 185 -33 -17 -57 -35 -54 -40 3 -5 0 -12 -6
-16 -8 -4 -9 -3 -5 4 13 21 -9 13 -52 -19 -23 -17 -39 -36 -35 -41 3 -7 1 -8
-5 -4 -16 10 -114 -83 -108 -101 3 -8 2 -12 -3 -9 -13 9 -34 -21 -25 -36 4 -7
4 -10 -1 -6 -4 4 -14 3 -22 -3 -16 -14 -18 -33 -1 -23 7 4 8 3 4 -5 -4 -6 -11
-9 -16 -6 -12 7 -42 -44 -36 -61 3 -8 2 -12 -4 -9 -12 8 -33 -33 -26 -51 3 -8
2 -12 -3 -9 -12 7 -24 -30 -26 -80 -1 -22 -7 -74 -14 -115 -28 -173 31 -396
144 -550 86 -117 236 -235 366 -287 38 -15 69 -34 69 -42 0 -18 -37 -8 -127
35 -188 90 -364 274 -429 448 -10 27 -20 43 -23 35 -2 -7 -14 13 -27 46 -28
74 -31 59 -4 -26 10 -35 18 -65 15 -67 -2 -2 -14 28 -26 67 -24 76 -38 90 -19
21 6 -23 9 -44 7 -46 -3 -3 -12 27 -22 65 -9 39 -21 69 -25 66 -14 -9 -21 151
-10 241 50 401 361 719 783 800 87 16 263 11 355 -11z m-539 -159 c-2 -2 -15
-9 -29 -15 -24 -11 -24 -11 -6 3 16 13 49 24 35 12z m149 -44 c13 2 18 -6 20
-36 2 -21 0 -46 -3 -55 -6 -14 -8 -14 -15 4 -8 19 -8 19 -18 -5 -9 -20 -11
-11 -10 50 0 41 2 67 5 57 2 -10 12 -16 21 -15z m391 -44 c-1 -40 -4 -64 -6
-54 -4 15 -7 16 -14 5 -7 -11 -9 -11 -9 -1 0 7 -4 10 -10 7 -6 -4 -10 14 -10
47 0 38 3 49 10 38 8 -12 10 -12 11 5 1 17 2 16 9 -5 l8 -25 1 28 c1 15 3 27
6 27 3 0 4 -33 4 -72z m-352 -30 c-2 -18 -4 -4 -4 32 0 36 2 50 4 33 2 -18 2
-48 0 -65z m418 11 c-5 -36 -20 -58 -22 -31 -1 9 -3 22 -4 27 -2 6 1 26 5 45
8 32 9 33 17 13 4 -12 6 -36 4 -54z m-523 34 c2 -16 1 -41 -2 -58 -5 -25 -7
-27 -13 -12 -10 26 -9 97 2 97 5 0 10 -12 13 -27z m395 -40 c-2 -16 -4 -5 -4
22 0 28 2 40 4 28 2 -13 2 -35 0 -50z m213 35 c0 -7 -10 -29 -21 -48 l-22 -35
-11 24 c-9 20 -6 27 19 47 35 28 35 28 35 12z m-660 -38 c11 -21 6 -40 -10
-40 -10 0 -40 52 -40 70 0 16 37 -6 50 -30z m277 25 c0 -8 -4 -12 -9 -9 -5 3
-6 10 -3 15 9 13 12 11 12 -6z m-354 -66 c3 -11 0 -19 -7 -19 -20 0 -36 22
-36 49 0 23 1 23 19 7 10 -10 21 -26 24 -37z m793 -5 c-9 -24 -35 -17 -28 8 9
35 26 50 30 26 2 -11 1 -26 -2 -34z m-389 31 c0 -8 -4 -12 -9 -9 -5 3 -6 10
-3 15 9 13 12 11 12 -6z m-577 -8 c0 -2 -17 -19 -37 -38 l-38 -34 34 38 c33
34 41 42 41 34z m93 -47 c3 -13 0 -20 -8 -20 -11 0 -13 14 -6 38 3 8 9 -1 14
-18z m937 -5 c0 -8 -4 -15 -9 -15 -13 0 -22 16 -14 24 11 11 23 6 23 -9z
m-970 -22 c0 -20 -24 -11 -28 10 -2 12 1 15 12 11 9 -3 16 -13 16 -21z m408
-5 c35 -11 60 -23 55 -27 -36 -31 -92 -71 -99 -71 -5 0 -2 5 6 10 12 8 12 10
-5 11 -81 3 -181 -2 -213 -10 -57 -16 -156 -84 -186 -128 -15 -21 -31 -38 -38
-38 -6 0 -13 -7 -15 -15 -4 -13 -3 -13 6 0 17 23 12 -2 -5 -30 -9 -15 -13 -18
-9 -6 5 17 4 17 -12 5 -10 -8 -14 -9 -10 -2 5 7 -1 17 -14 23 -24 13 -41 4
-19 -10 13 -8 13 -10 -1 -10 -8 0 -23 6 -32 13 -16 11 -13 19 33 90 125 190
340 265 558 195z m412 21 c93 -15 189 -68 258 -145 59 -64 110 -149 98 -161
-4 -4 -10 -3 -14 3 -14 20 -40 22 -67 4 l-28 -18 -39 59 c-74 111 -164 159
-297 159 -70 0 -86 -4 -150 -36 -41 -20 -96 -59 -124 -87 -29 -28 -55 -51 -59
-52 -3 0 -10 -4 -15 -9 -5 -5 -2 -6 6 -1 9 5 12 3 9 -6 -3 -8 -10 -13 -15 -12
-5 1 -9 -6 -10 -15 -1 -9 -10 -42 -21 -72 -11 -30 -23 -77 -26 -105 -3 -31 -3
-40 2 -25 6 19 10 6 15 -55 8 -90 43 -177 96 -237 20 -23 28 -39 21 -43 -15
-9 -47 20 -82 74 -15 25 -28 38 -28 30 0 -12 -2 -12 -10 1 -9 13 -10 13 -10 0
-1 -9 -6 -6 -16 10 -8 14 -13 17 -10 8 3 -10 9 -26 12 -35 5 -15 3 -15 -10 1
-18 22 -21 14 -7 -13 7 -13 6 -18 -4 -18 -8 0 -12 4 -9 9 3 4 1 8 -5 8 -20 0
-53 115 -58 205 -10 169 40 299 162 420 80 80 165 130 258 150 78 17 97 17
177 4z m190 -9 c0 -11 -7 -20 -15 -20 -27 0 -18 30 13 39 1 1 2 -8 2 -19z
m-1055 -10 c3 -5 -1 -10 -9 -10 -9 0 -16 5 -16 10 0 6 4 10 9 10 6 0 13 -4 16
-10z m1100 0 c3 -5 -3 -10 -15 -10 -12 0 -18 5 -15 10 3 6 10 10 15 10 5 0 12
-4 15 -10z m-1085 -29 c0 -11 -26 -22 -34 -14 -12 12 -5 23 14 23 11 0 20 -4
20 -9z m1080 0 c0 -18 -18 -21 -30 -6 -10 13 -9 15 9 15 11 0 21 -4 21 -9z
m33 -38 c-9 -22 -23 -14 -23 12 0 21 2 24 14 13 7 -7 11 -19 9 -25z m-1163 6
c0 -18 -2 -19 -15 -9 -15 12 -12 30 6 30 5 0 9 -10 9 -21z m1192 -41 c-13 -13
-24 5 -16 27 7 16 8 16 17 0 6 -11 6 -20 -1 -27z m-1222 18 c0 -17 -14 -29
-23 -20 -8 8 3 34 14 34 5 0 9 -6 9 -14z m-30 -47 c0 -10 -4 -19 -10 -19 -5 0
-10 12 -10 26 0 14 4 23 10 19 6 -3 10 -15 10 -26z m1283 -6 c-4 -10 -9 -11
-16 -4 -5 5 -7 18 -3 28 6 14 9 15 16 4 4 -8 6 -21 3 -28z m-1311 -41 c-4 -13
-7 -12 -12 4 -4 10 -5 23 -2 28 7 13 21 -16 14 -32z m1341 24 c6 -15 -1 -26
-15 -26 -4 0 -8 9 -8 20 0 23 15 27 23 6z m-402 -26 c14 8 24 1 52 -38 32 -44
67 -113 67 -133 0 -5 -8 -9 -18 -9 -9 0 -34 -9 -55 -20 -45 -25 -47 -25 -47
-1 0 11 -9 40 -20 66 -11 26 -17 52 -13 57 3 6 1 8 -4 5 -6 -4 -14 0 -17 8 -3
9 1 18 9 21 8 4 12 11 8 17 -3 6 -1 7 5 3 6 -4 9 -13 6 -20 -3 -8 -1 -17 5
-21 7 -4 8 0 4 11 -4 12 -3 15 5 10 8 -5 10 -1 5 10 -5 13 -3 15 7 9 9 -5 11
-4 6 4 -4 6 -11 9 -16 6 -4 -3 -14 3 -21 13 -11 14 -11 15 1 5 9 -8 19 -9 31
-3z m-528 -38 c17 -18 16 -21 -6 -73 -13 -30 -27 -66 -31 -81 l-6 -28 -33 20
c-17 11 -40 20 -49 20 -9 0 -19 4 -22 8 -7 12 37 102 68 139 30 35 44 34 79
-5z m-433 19 c0 -17 -15 -19 -28 -5 -11 12 -9 14 8 14 11 0 20 -4 20 -9z
m1400 0 c0 -11 -26 -22 -34 -14 -12 12 -5 23 14 23 11 0 20 -4 20 -9z m-552
-24 c34 -36 74 -134 79 -198 l6 -59 -56 0 c-62 0 -67 5 -70 79 0 22 -4 38 -8
35 -4 -2 -5 4 -3 13 3 10 -9 40 -27 68 -17 27 -24 43 -15 36 19 -16 22 -1 4
19 -11 12 -10 12 3 2 9 -6 20 -8 24 -4 5 4 5 1 0 -7 -5 -10 -4 -12 4 -7 6 4 9
12 6 17 -8 12 3 29 19 29 7 0 22 -10 34 -23z m-873 -36 c3 -5 1 -13 -5 -16
-15 -9 -43 3 -35 15 8 13 32 13 40 1z m1450 -1 c3 -6 -1 -13 -10 -16 -19 -8
-30 0 -20 15 8 14 22 14 30 1z m-1463 -52 c-7 -7 -12 -8 -12 -2 0 14 12 26 19
19 2 -3 -1 -11 -7 -17z m1458 2 c0 -5 -5 -10 -11 -10 -5 0 -7 5 -4 10 3 6 8
10 11 10 2 0 4 -4 4 -10z m-150 -24 c0 -3 -4 -8 -10 -11 -5 -3 -10 -1 -10 4 0
6 5 11 10 11 6 0 10 -2 10 -4z m-1315 -45 c0 -15 -8 -27 -22 -32 -21 -8 -22
-7 -10 13 9 16 9 22 0 25 -22 8 -14 25 10 21 16 -2 22 -10 22 -27z m1500 19
c6 -10 -9 -15 -30 -10 -5 1 -4 -4 3 -11 6 -7 12 -20 12 -28 0 -12 -4 -11 -20
5 -13 12 -18 27 -14 37 7 19 39 23 49 7z m-918 -92 c-3 -8 -6 -5 -6 6 -1 11 2
17 5 13 3 -3 4 -12 1 -19z m-593 -4 c7 -19 1 -31 -25 -45 -19 -10 -20 -9 -9
10 7 14 7 21 0 21 -5 0 -10 7 -10 15 0 20 36 19 44 -1z m1522 5 c3 -6 2 -14
-3 -18 -6 -3 -12 -12 -14 -20 -4 -11 -8 -10 -22 4 -14 13 -15 20 -6 31 14 17
35 18 45 3z m-841 -66 c-18 -42 -16 -62 5 -83 14 -14 30 -20 46 -17 13 2 21 0
18 -4 -10 -17 -55 -8 -79 16 -14 13 -25 19 -26 12 0 -7 -4 -2 -9 10 -13 32 7
83 32 83 15 0 18 -4 13 -17z m455 -39 c0 -28 -3 -73 -7 -100 -6 -42 -8 -45
-14 -24 -7 25 -7 25 -8 2 -1 -13 -5 -20 -11 -17 -6 3 -14 -4 -19 -17 -8 -18
-9 -15 -7 20 2 23 6 45 9 49 4 3 7 20 7 37 0 23 -3 27 -12 18 -15 -15 -222
-17 -213 -2 12 20 -13 9 -29 -12 -9 -13 -14 -16 -9 -8 4 8 -8 3 -26 -12 -18
-16 -40 -28 -49 -28 -14 1 -13 3 3 12 11 6 26 18 33 26 14 19 16 78 2 87 -27
16 4 20 170 20 l180 0 0 -51z m-1145 22 c-12 -9 -15 -15 -7 -20 17 -10 15 -43
-2 -49 -10 -4 -13 -1 -9 8 3 8 -2 18 -11 21 -24 9 -19 31 12 47 32 16 43 12
17 -7z m1535 -25 c0 -10 -11 -23 -25 -29 -22 -10 -25 -9 -25 6 0 10 5 23 12
30 9 9 7 13 -5 18 -9 3 -17 10 -17 15 0 5 14 3 30 -6 17 -9 30 -24 30 -34z
m-762 27 c17 -17 15 -26 -13 -44 -24 -16 -27 -15 -45 1 -15 13 -17 22 -9 36
11 21 49 25 67 7z m-750 -122 c6 -30 -13 -40 -37 -20 -15 14 -18 21 -9 31 15
19 42 12 46 -11z m1486 18 c23 -9 20 -31 -5 -39 -28 -9 -46 9 -29 30 14 17 13
17 34 9z m-1039 -67 c4 -17 20 -55 36 -83 21 -38 26 -53 17 -62 -8 -8 -15 -9
-25 -1 -17 14 -17 -2 0 -21 6 -8 2 -6 -10 4 -24 20 -32 10 -10 -14 6 -8 2 -6
-10 4 -24 20 -32 10 -10 -14 6 -8 2 -6 -11 5 -23 19 -77 121 -87 165 -5 23 -1
26 42 40 26 9 51 14 55 13 3 -2 10 -18 13 -36z m-285 4 c0 -27 47 -111 83
-149 18 -18 61 -47 96 -65 54 -26 76 -31 136 -31 63 0 82 4 148 37 51 25 90
54 121 88 25 28 46 55 46 59 0 4 7 11 16 14 12 5 15 2 10 -10 -6 -15 -4 -15
10 -3 16 13 16 12 6 -8 -15 -28 -15 -36 0 -27 7 4 8 3 4 -5 -4 -6 -11 -9 -16
-6 -8 5 -66 -65 -63 -77 1 -3 -5 -12 -15 -20 -15 -12 -16 -11 -3 5 20 25 6 21
-40 -13 -98 -70 -243 -91 -351 -50 -63 24 -61 23 -52 8 4 -8 3 -10 -2 -5 -5 5
-9 12 -10 15 -1 13 -133 140 -138 134 -3 -3 -6 -10 -6 -16 0 -7 3 -7 8 0 5 8
14 3 26 -15 l20 -26 -22 19 c-12 11 -22 15 -22 11 0 -5 -5 -4 -11 2 -8 8 -8
17 0 31 8 15 8 23 -1 28 -6 4 -8 3 -5 -3 3 -5 0 -10 -8 -10 -11 0 -12 5 -3 20
7 14 7 17 -1 13 -6 -4 -11 -4 -11 1 0 4 -16 9 -37 10 -35 2 -74 23 -42 23 7 0
37 11 64 24 54 25 65 25 65 -3z m1184 4 c27 -14 56 -25 65 -25 22 0 0 -19 -27
-23 -25 -4 -47 -22 -47 -40 0 -7 -10 -11 -22 -11 -13 1 -19 -4 -17 -11 3 -6
-5 -23 -16 -36 l-21 -24 17 29 c11 17 -6 5 -42 -31 -94 -94 -193 -130 -312
-113 -77 11 -99 22 -79 38 11 9 27 10 67 1 147 -31 315 67 365 214 10 32 19
57 20 57 0 0 22 -11 49 -25z m-267 -37 c-3 -8 -6 -5 -6 6 -1 11 2 17 5 13 3
-3 4 -12 1 -19z m-1077 -8 c0 -11 -7 -20 -16 -20 -8 0 -12 5 -9 10 3 6 1 10
-5 10 -6 0 -8 5 -5 10 11 18 35 11 35 -10z m1475 10 c3 -6 0 -17 -9 -25 -17
-17 -31 -4 -22 20 6 17 22 20 31 5z m-894 -22 c2 5 17 -9 33 -32 21 -30 23
-36 7 -22 -29 26 -27 5 2 -22 13 -12 27 -19 32 -15 4 5 5 2 1 -5 -6 -11 -14
-8 -33 10 -29 27 -52 65 -33 53 8 -5 11 -3 8 6 -3 8 -11 14 -18 14 -7 0 -15 7
-17 15 -4 12 -3 12 5 1 5 -7 11 -9 13 -3z m270 -21 c-10 -9 -11 -8 -5 6 3 10
9 15 12 12 3 -3 0 -11 -7 -18z m-831 -7 c0 -5 -7 -10 -16 -10 -8 0 -12 5 -9
10 3 6 10 10 16 10 5 0 9 -4 9 -10z m956 -28 c-18 -36 -32 -46 -41 -33 -3 6 3
19 14 30 11 11 16 23 13 27 -4 4 -1 4 6 0 7 -4 12 -2 12 5 0 7 3 10 6 7 3 -4
-2 -20 -10 -36z m472 20 c2 -7 -2 -10 -12 -6 -9 3 -16 11 -16 16 0 13 23 5 28
-10z m-1421 -34 c-3 -8 -6 -5 -6 6 -1 11 2 17 5 13 3 -3 4 -12 1 -19z m793 -1
c0 -2 -12 -14 -27 -28 l-28 -24 24 28 c23 25 31 32 31 24z m-760 -43 c0 -9 -5
-14 -12 -12 -18 6 -21 28 -4 28 9 0 16 -7 16 -16z m130 -9 c0 4 9 0 20 -10 11
-10 17 -21 15 -26 -3 -4 9 -19 27 -34 18 -15 24 -22 13 -17 -11 6 -42 34 -70
63 -27 30 -40 45 -27 35 12 -11 22 -15 22 -11z m630 22 c0 -2 -17 -19 -37 -38
l-38 -34 34 38 c33 34 41 42 41 34z m593 -3 c8 -8 -16 -33 -25 -27 -13 7 -9
33 5 33 8 0 16 -3 20 -6z m-137 -13 c33 27 10 -1 -38 -46 -29 -28 -40 -36 -24
-18 15 17 28 35 28 40 0 4 3 15 6 22 4 11 7 12 10 3 3 -10 7 -10 18 -1z
m-1186 -35 c0 -8 -4 -17 -9 -20 -10 -7 -23 19 -14 28 11 11 23 6 23 -8z m1290
-1 c0 -8 -7 -15 -15 -15 -16 0 -20 12 -8 23 11 12 23 8 23 -8z m-160 2 c0 -2
-10 -12 -22 -23 l-23 -19 19 23 c18 21 26 27 26 19z m-959 -24 c13 -16 12 -17
-3 -4 -10 7 -18 15 -18 17 0 8 8 3 21 -13z m1039 4 c0 -2 -10 -12 -22 -23
l-23 -19 19 23 c18 21 26 27 26 19z m-1181 -35 c0 -11 -2 -12 -6 -4 -2 6 -9
10 -14 6 -10 -6 -12 9 -3 19 10 10 24 -2 23 -21z m1227 0 c-18 -18 -31 -10
-23 12 4 10 13 13 22 9 15 -5 15 -7 1 -21z m-166 -7 c0 -6 -56 -35 -67 -35 -4
1 8 9 27 20 39 22 40 22 40 15z m-1024 -34 c-4 -5 -13 -8 -22 -4 -11 4 -12 8
-3 20 14 16 36 2 25 -16z m159 11 c-3 -3 -11 0 -18 7 -9 10 -8 11 6 5 10 -3
15 -9 12 -12z m1015 -7 c0 -3 -9 -5 -20 -5 -11 0 -20 7 -20 15 0 13 4 14 20 5
11 -6 20 -13 20 -15z m-1130 -35 c0 -5 -9 -8 -20 -7 -20 1 -25 8 -14 20 8 7
34 -3 34 -13z m1075 11 c7 -12 -12 -24 -25 -16 -11 7 -4 25 10 25 5 0 11 -4
15 -9z m-1059 -59 c-14 -14 -16 -14 -16 -1 0 20 23 44 29 28 2 -6 -4 -18 -13
-27z m1023 12 c3 -16 1 -17 -13 -5 -19 16 -21 34 -3 29 6 -3 14 -13 16 -24z
m-976 -15 c-4 -15 -8 -17 -14 -8 -8 14 -3 29 11 29 4 0 6 -9 3 -21z m937 -1
c0 -18 -2 -20 -9 -8 -6 8 -7 18 -5 22 9 14 14 9 14 -14z m-860 -26 c0 -9 -9
-23 -20 -30 -18 -11 -20 -10 -20 11 0 13 3 27 7 30 13 13 33 7 33 -11z m800
-1 c5 -11 7 -27 4 -36 -6 -14 -10 -12 -25 11 -17 27 -17 44 1 44 5 0 14 -9 20
-19z m-712 -19 c2 -6 -9 -23 -24 -38 -33 -30 -42 -18 -19 26 16 30 35 36 43
12z m620 5 c6 -7 16 -25 21 -40 10 -26 10 -27 -12 -16 -27 14 -37 28 -37 52 0
20 13 22 28 4z m-577 -19 c1 -13 0 -27 -1 -33 -1 -5 -3 -20 -4 -32 -2 -42 -16
-11 -16 38 0 48 19 72 21 27z m68 -18 c1 17 4 21 12 13 7 -7 8 -24 1 -54 -8
-34 -10 -37 -11 -16 -2 48 -20 29 -24 -25 -2 -32 -4 -18 -4 37 -1 86 -1 88 12
55 12 -30 14 -32 14 -10z m455 15 c8 -31 -3 -82 -14 -65 -10 17 -11 90 0 90 4
0 11 -11 14 -25z m-417 -67 c-2 -18 -4 -6 -4 27 0 33 2 48 4 33 2 -15 2 -42 0
-60z m351 0 l-1 -83 -7 60 c-5 47 -7 53 -10 25 l-3 -35 -5 35 -5 35 -7 -35
c-7 -32 -7 -31 -9 18 -1 50 11 65 31 37 4 -6 8 -2 8 8 0 9 2 17 5 17 3 0 4
-37 3 -82z m-61 5 c-2 -16 -4 -5 -4 22 0 28 2 40 4 28 2 -13 2 -35 0 -50z
m-113 36 c-3 -5 -10 -7 -15 -3 -5 3 -7 10 -3 15 3 5 10 7 15 3 5 -3 7 -10 3
-15z m-9 -29 c-9 -14 8 -12 25 3 12 10 12 9 1 -5 -11 -15 -11 -18 -1 -18 8 0
11 -3 8 -6 -10 -9 -49 16 -43 27 4 5 8 9 11 9 3 0 2 -4 -1 -10z"/>
<path d="M541 1554 c0 -11 3 -14 6 -6 3 7 2 16 -1 19 -3 4 -6 -2 -5 -13z"/>
<path d="M1450 1614 c0 -6 42 -74 46 -74 3 0 -3 14 -11 30 -9 17 -14 34 -11
39 3 4 -1 8 -9 8 -8 0 -15 -2 -15 -3z"/>
<path d="M1040 1097 c0 -5 5 -17 11 -29 6 -11 8 -22 6 -25 -3 -3 -12 8 -21 24
-21 38 -20 20 1 -20 9 -18 18 -26 20 -19 3 6 9 10 14 6 5 -3 9 0 9 6 0 6 5 8
10 5 6 -3 10 -1 10 6 0 7 7 4 15 -7 8 -10 15 -14 15 -8 0 6 -7 17 -15 24 -8 7
-15 9 -15 4 0 -5 -10 2 -21 16 -20 24 -20 24 -9 2 17 -34 4 -39 -14 -5 -8 15
-15 24 -16 20z"/>
<path d="M830 996 c0 -2 8 -10 18 -17 15 -13 16 -12 3 4 -13 16 -21 21 -21 13z"/>
</g>
</svg>
